<?xml version="1.0" encoding="utf-8"?>
<!-- Generator: Adobe Illustrator 17.0.0, SVG Export Plug-In . SVG Version: 6.00 Build 0)  -->
<!DOCTYPE svg PUBLIC "-//W3C//DTD SVG 1.1//EN" "http://www.w3.org/Graphics/SVG/1.1/DTD/svg11.dtd">
<svg version="1.1" id="Layer_1" xmlns="http://www.w3.org/2000/svg" xmlns:xlink="http://www.w3.org/1999/xlink" x="0px" y="0px"
	 width="449.767px" height="263.166px" viewBox="0 0 449.767 263.166" enable-background="new 0 0 449.767 263.166"
	 xml:space="preserve">
<path fill="#FFFFFF" d="M0,5.496h103.623v7.065H92.789c0,0-14.13,0.942-8.478,21.196c5.652,20.254,48.985,146.956,48.985,146.956
	l60.761-153.551c0,0,4.71-14.13-9.891-14.13c-11.775,0-11.775,0-11.775,0V5.025h56.521v7.536h-13.188c0,0-8.244-0.706-15.074,17.428
	c-7.771,20.637-92.318,232.21-92.318,232.21L26.848,23.865c0,0-2.355-10.833-14.601-10.833C0,13.032,0,13.032,0,13.032V5.496z"/>
<g>
	<g>
		<path fill="#FFFFFF" d="M302.627,246.891l-17.899-27.319c18.136-20.961,20.255-40.743,21.432-48.749
			c1.179-8.008,7.065-11.776,7.065-11.776h9.892v-5.652h-42.392v5.185l7.855,1.566c9.421,0,9.421,12.561,9.421,12.561
			c-5.023,32.029-17.587,40.82-17.587,40.82l-43.959-69.711c11.304-5.652,31.402-21.979,31.402-21.979
			c23.863-19.468-3.85-40.27-3.85-40.27c-38.664-24.293-67.118,3.844-67.118,3.844c-25.121,18.212,4.394,68.455,4.394,68.455
			c-9.419,3.141-22.608,11.304-22.608,11.304s-41.724,25.345-22.608,64.686c31.593,65.021,104.88,14.446,104.88,14.446
			c45.845,43.333,62.877-3.533,62.877-3.533C308.044,256.783,302.627,246.891,302.627,246.891z M232.211,80.858
			c10.832,0,18.37,11.304,18.37,28.732c0,17.428-19.312,30.616-19.312,30.616c-1.885-0.47-19.783-33.442-20.253-41.92
			C210.543,89.808,221.377,80.858,232.211,80.858z M232.681,248.069c-23.551,2.355-40.506-15.544-48.044-43.805
			c-7.536-28.261,20.725-43.333,20.725-43.333l50.4,77.247C255.762,238.178,256.232,245.713,232.681,248.069z"/>
	</g>
</g>
<path fill="#FFFFFF" d="M326.258,0l89.807,231.74c0,0,6.906,21.353,21.979,21.353c15.072,0,11.305,0,11.305,0v8.467H343.215v-8.47
	h11.617c0,0,11.931-2.52,5.965-17.592c-5.965-15.072-60.604-159.83-60.604-159.83L326.258,0z"/>
</svg>
